<svg width="70" height="76" viewBox="0 0 70 76" fill="none" xmlns="http://www.w3.org/2000/svg">
<path d="M0 10C0 4.47715 4.47715 0 10 0H60C65.5229 0 70 4.47715 70 10V66C70 71.5229 65.5229 76 60 76H10C4.47715 76 0 71.5229 0 66V10Z" fill="#23A6F0"/>
<path d="M45.667 48.6668H24.3337C22.8609 48.6668 21.667 47.4729 21.667 46.0002V30.0002C21.667 28.5274 22.8609 27.3335 24.3337 27.3335H45.667C47.1398 27.3335 48.3337 28.5274 48.3337 30.0002V46.0002C48.3337 47.4729 47.1398 48.6668 45.667 48.6668ZM24.3337 38.0002V46.0002H45.667V38.0002H24.3337ZM24.3337 30.0002V32.6668H45.667V30.0002H24.3337ZM36.3337 43.3335H27.0003V40.6668H36.3337V43.3335Z" fill="white"/>
</svg>
