<svg width="70" height="76" viewBox="0 0 70 76" fill="none" xmlns="http://www.w3.org/2000/svg">
<path d="M0 10C0 4.47715 4.47715 0 10 0H60C65.5229 0 70 4.47715 70 10V66C70 71.5229 65.5229 76 60 76H10C4.47715 76 0 71.5229 0 66V10Z" fill="#23A6F0"/>
<path d="M35 53.0265L23 43.6931L25.16 42.0131L34.9867 49.6531L44.8267 42.0011L47 43.6931L35 53.0265ZM35 47.3331L23 37.9998L25.16 36.3198L34.9867 43.9598L44.8267 36.3065L47 37.9998L35 47.3331ZM35 41.6398L25.1733 33.9998L23 32.3065L35 22.9731L47 32.3065L44.8133 33.9998L35 41.6398Z" fill="white"/>
</svg>
