<svg width="70" height="76" viewBox="0 0 70 76" fill="none" xmlns="http://www.w3.org/2000/svg">
<path d="M0 10C0 4.47715 4.47715 0 10 0H60C65.5229 0 70 4.47715 70 10V66C70 71.5229 65.5229 76 60 76H10C4.47715 76 0 71.5229 0 66V10Z" fill="#23A6F0"/>
<path d="M35.0003 51.3332C27.6365 51.3332 21.667 45.3636 21.667 37.9998C21.667 30.636 27.6365 24.6665 35.0003 24.6665C42.3641 24.6665 48.3337 30.636 48.3337 37.9998C48.3256 45.3603 42.3608 51.3251 35.0003 51.3332ZM35.0003 27.3332C29.1093 27.3332 24.3337 32.1088 24.3337 37.9998C24.3337 43.8909 29.1093 48.6665 35.0003 48.6665C40.8914 48.6665 45.667 43.8909 45.667 37.9998C45.6604 32.1115 40.8886 27.3398 35.0003 27.3332ZM41.667 39.3332H33.667V31.3332H36.3337V36.6665H41.667V39.3332Z" fill="white"/>
</svg>
